<svg xmlns="http://www.w3.org/2000/svg" viewBox="0 0 1600 1200" width="1600" height="1200">
  <defs>
    <radialGradient id="skyG" cx="0.5" cy="0.42" r="0.85">
      <stop offset="0" stop-color="#2B2F6B"/>
      <stop offset="0.6" stop-color="#1C1F4A"/>
      <stop offset="1" stop-color="#15173D"/>
    </radialGradient>
    <radialGradient id="vig" cx="0.5" cy="0.5" r="0.72">
      <stop offset="0" stop-color="#15173D" stop-opacity="0"/>
      <stop offset="0.62" stop-color="#15173D" stop-opacity="0"/>
      <stop offset="1" stop-color="#15173D" stop-opacity="0.95"/>
    </radialGradient>
    <pattern id="checker" width="120" height="120" patternUnits="userSpaceOnUse">
      <rect width="120" height="120" fill="#8CDAB2"/>
      <rect width="60" height="60" fill="#76C89E"/>
      <rect x="60" y="60" width="60" height="60" fill="#76C89E"/>
    </pattern>
    <path id="star4" d="M0 -12 L3 -3 L12 0 L3 3 L0 12 L-3 3 L-12 0 L-3 -3 Z"/>
  </defs>

  <!-- 夜空 -->
  <rect width="1600" height="1200" fill="url(#skyG)"/>

  <!-- 空中彩带与星星 -->
  <g>
    <rect x="180" y="120" width="18" height="10" rx="4" fill="#FFC831" transform="rotate(24 189 125)"/>
    <rect x="360" y="70" width="18" height="10" rx="4" fill="#3EA6FF" transform="rotate(-30 369 75)"/>
    <rect x="560" y="150" width="18" height="10" rx="4" fill="#FF5A5F" transform="rotate(48 569 155)"/>
    <rect x="820" y="80" width="18" height="10" rx="4" fill="#3ED97E" transform="rotate(-18 829 85)"/>
    <rect x="1060" y="130" width="18" height="10" rx="4" fill="#9B5CFF" transform="rotate(32 1069 135)"/>
    <rect x="1300" y="70" width="18" height="10" rx="4" fill="#FF6FB5" transform="rotate(-42 1309 75)"/>
    <rect x="1420" y="180" width="18" height="10" rx="4" fill="#FF8A3D" transform="rotate(14 1429 185)"/>
    <rect x="120" y="420" width="16" height="9" rx="4" fill="#FF8A3D" transform="rotate(-24 128 424)"/>
    <rect x="1480" y="470" width="16" height="9" rx="4" fill="#3ED97E" transform="rotate(36 1488 474)"/>
    <rect x="90" y="760" width="16" height="9" rx="4" fill="#9B5CFF" transform="rotate(18 98 764)"/>
    <rect x="1490" y="820" width="16" height="9" rx="4" fill="#FFC831" transform="rotate(-28 1498 824)"/>
    <use href="#star4" x="0" y="0" transform="translate(250 220) scale(1.4)" fill="#FFC831"/>
    <use href="#star4" transform="translate(700 110) scale(1.1)" fill="#FFFFFF"/>
    <use href="#star4" transform="translate(940 200) scale(1.6)" fill="#FFC831"/>
    <use href="#star4" transform="translate(1240 250) scale(1.2)" fill="#3EA6FF"/>
    <use href="#star4" transform="translate(1440 340) scale(1.3)" fill="#FF6FB5"/>
    <use href="#star4" transform="translate(150 580) scale(1.2)" fill="#3ED97E"/>
    <use href="#star4" transform="translate(60 250) scale(1)" fill="#FFFFFF"/>
    <circle cx="460" cy="200" r="5" fill="#FFFFFF" opacity="0.7"/>
    <circle cx="1150" cy="90" r="4" fill="#FFC831" opacity="0.8"/>
    <circle cx="80" cy="640" r="4" fill="#FFFFFF" opacity="0.6"/>
    <circle cx="1540" cy="620" r="5" fill="#3EA6FF" opacity="0.7"/>
  </g>

  <!-- 竞技场 -->
  <g>
    <rect x="220" y="300" width="1160" height="720" rx="48" fill="#14122E" opacity="0.5" transform="translate(0 14)"/>
    <rect x="220" y="300" width="1160" height="720" rx="48" fill="url(#checker)" stroke="#14122E" stroke-width="10"/>
    <!-- 中线与中圈 -->
    <line x1="800" y1="316" x2="800" y2="1004" stroke="#FFFFFF" stroke-width="8" stroke-dasharray="28 20" opacity="0.45"/>
    <circle cx="800" cy="660" r="96" fill="none" stroke="#FFFFFF" stroke-width="8" opacity="0.45"/>
    <circle cx="800" cy="660" r="16" fill="#FFFFFF" opacity="0.45"/>
    <!-- 角标 -->
    <path d="M264 344h56M264 344v56" stroke="#FFFFFF" stroke-width="8" stroke-linecap="round" opacity="0.4"/>
    <path d="M1336 344h-56M1336 344v56" stroke="#FFFFFF" stroke-width="8" stroke-linecap="round" opacity="0.4"/>
    <path d="M264 976h56M264 976v-56" stroke="#FFFFFF" stroke-width="8" stroke-linecap="round" opacity="0.4"/>
    <path d="M1336 976h-56M1336 976v-56" stroke="#FFFFFF" stroke-width="8" stroke-linecap="round" opacity="0.4"/>
  </g>

  <!-- 掩体：木箱 ×2 -->
  <g>
    <rect x="724" y="520" width="104" height="104" rx="14" fill="#C98A5B" stroke="#14122E" stroke-width="8"/>
    <path d="M724 556h104M724 588h104" stroke="#14122E" stroke-width="5" opacity="0.55"/>
    <path d="M724 520l104 104M828 520l-104 104" stroke="#14122E" stroke-width="5" opacity="0.35"/>
    <rect x="936" y="732" width="88" height="88" rx="12" fill="#C98A5B" stroke="#14122E" stroke-width="8"/>
    <path d="M936 762h88M936 792h88" stroke="#14122E" stroke-width="5" opacity="0.55"/>
  </g>
  <!-- 掩体：轮胎 ×2 -->
  <g>
    <circle cx="660" cy="880" r="44" fill="#3A3F55" stroke="#14122E" stroke-width="8"/>
    <circle cx="660" cy="880" r="20" fill="#8A90B8" stroke="#14122E" stroke-width="6"/>
    <circle cx="1108" cy="600" r="38" fill="#3A3F55" stroke="#14122E" stroke-width="8"/>
    <circle cx="1108" cy="600" r="17" fill="#8A90B8" stroke="#14122E" stroke-width="6"/>
  </g>

  <!-- ===== 狙击手 神枪阿亮（紫，左上，瞄准右下） ===== -->
  <g>
    <ellipse cx="450" cy="492" rx="48" ry="13" fill="rgba(0,0,0,0.22)"/>
    <!-- 狙击枪（先画枪，身体压住枪尾） -->
    <g transform="rotate(28 450 430)">
      <rect x="470" y="418" width="128" height="18" rx="9" fill="#6E35CC" stroke="#14122E" stroke-width="6"/>
      <rect x="592" y="414" width="18" height="26" rx="6" fill="#14122E"/>
      <circle cx="500" cy="410" r="12" fill="#9B5CFF" stroke="#14122E" stroke-width="5"/>
    </g>
    <!-- 弹道虚线 + 星弹 -->
    <line x1="540" y1="480" x2="980" y2="760" stroke="#FFFFFF" stroke-width="5" stroke-dasharray="4 26" stroke-linecap="round" opacity="0.8"/>
    <use href="#star4" transform="translate(700 590) scale(1.5)" fill="#FFC831"/>
    <use href="#star4" transform="translate(880 700) scale(1.2)" fill="#FFFFFF"/>
    <!-- 脚 -->
    <ellipse cx="432" cy="474" rx="11" ry="8" fill="#6E35CC" stroke="#14122E" stroke-width="5"/>
    <ellipse cx="470" cy="474" rx="11" ry="8" fill="#6E35CC" stroke="#14122E" stroke-width="5"/>
    <!-- 身体 -->
    <circle cx="450" cy="428" r="48" fill="#9B5CFF" stroke="#14122E" stroke-width="7"/>
    <path d="M404 420a46 46 0 0 1 92 0l0 6-92 0z" fill="#6E35CC" stroke="#14122E" stroke-width="6"/>
    <!-- 脸（酷表情：墨镜） -->
    <rect x="420" y="424" width="26" height="13" rx="6.5" fill="#14122E"/>
    <rect x="454" y="424" width="26" height="13" rx="6.5" fill="#14122E"/>
    <rect x="444" y="428" width="12" height="5" fill="#14122E"/>
    <path d="M436 452q14 10 28 0" stroke="#14122E" stroke-width="5" fill="none" stroke-linecap="round"/>
  </g>

  <!-- ===== 铁皮蛋（红，右上，朝左下冲） ===== -->
  <g>
    <ellipse cx="1050" cy="542" rx="48" ry="13" fill="rgba(0,0,0,0.22)"/>
    <g transform="rotate(155 1050 478)">
      <rect x="1070" y="464" width="66" height="20" rx="10" fill="#D9622B" stroke="#14122E" stroke-width="6"/>
      <rect x="1070" y="488" width="66" height="16" rx="8" fill="#D9622B" stroke="#14122E" stroke-width="6"/>
      <rect x="1130" y="462" width="14" height="24" rx="5" fill="#14122E"/>
    </g>
    <!-- 霰弹星雨 -->
    <use href="#star4" transform="translate(972 534) scale(1.3)" fill="#FFC831"/>
    <use href="#star4" transform="translate(934 560) scale(1.1)" fill="#FF8A3D"/>
    <use href="#star4" transform="translate(948 512) scale(0.9)" fill="#FFFFFF"/>
    <ellipse cx="1032" cy="524" rx="11" ry="8" fill="#D63A44" stroke="#14122E" stroke-width="5"/>
    <ellipse cx="1070" cy="524" rx="11" ry="8" fill="#D63A44" stroke="#14122E" stroke-width="5"/>
    <circle cx="1050" cy="478" r="48" fill="#FF5A5F" stroke="#14122E" stroke-width="7"/>
    <path d="M1004 470a46 46 0 0 1 92 0l0 6-92 0z" fill="#D63A44" stroke="#14122E" stroke-width="6"/>
    <!-- 愤怒脸 -->
    <circle cx="1032" cy="478" r="9" fill="#FFFFFF"/>
    <circle cx="1068" cy="478" r="9" fill="#FFFFFF"/>
    <circle cx="1029" cy="480" r="4.5" fill="#14122E"/>
    <circle cx="1065" cy="480" r="4.5" fill="#14122E"/>
    <path d="M1020 464l16 6M1080 464l-16 6" stroke="#14122E" stroke-width="5" stroke-linecap="round"/>
    <path d="M1036 504q14-8 28 0" stroke="#14122E" stroke-width="5" fill="none" stroke-linecap="round"/>
  </g>

  <!-- ===== 玩家（蓝，中央偏左，朝右开火） ===== -->
  <g>
    <ellipse cx="560" cy="732" rx="52" ry="14" fill="rgba(0,0,0,0.22)"/>
    <!-- 手枪 -->
    <rect x="592" y="668" width="62" height="24" rx="11" fill="#3EA6FF" stroke="#14122E" stroke-width="6"/>
    <rect x="648" y="672" width="16" height="16" rx="6" fill="#1B6FD1" stroke="#14122E" stroke-width="5"/>
    <rect x="606" y="690" width="18" height="24" rx="8" fill="#FFFFFF" stroke="#14122E" stroke-width="5"/>
    <!-- 枪口星形火光 -->
    <use href="#star4" transform="translate(684 680) scale(1.9)" fill="#FFC831" stroke="#14122E" stroke-width="1.5"/>
    <!-- 星弹飞行线 -->
    <path d="M716 680h30M764 680h26M812 680h22" stroke="#FFFFFF" stroke-width="5" stroke-linecap="round" opacity="0.7"/>
    <use href="#star4" transform="translate(740 680) scale(1.4)" fill="#FFC831"/>
    <use href="#star4" transform="translate(796 680) scale(1.2)" fill="#FFE37A"/>
    <use href="#star4" transform="translate(852 680) scale(1)" fill="#FFFFFF"/>
    <!-- 脚 -->
    <ellipse cx="540" cy="716" rx="12" ry="8" fill="#1B6FD1" stroke="#14122E" stroke-width="5"/>
    <ellipse cx="582" cy="716" rx="12" ry="8" fill="#1B6FD1" stroke="#14122E" stroke-width="5"/>
    <!-- 身体 -->
    <circle cx="560" cy="668" r="52" fill="#3EA6FF" stroke="#14122E" stroke-width="7"/>
    <path d="M512 660a48 48 0 0 1 96 0l0 6-96 0z" fill="#1B6FD1" stroke="#14122E" stroke-width="6"/>
    <!-- 笑脸 -->
    <circle cx="542" cy="668" r="9.5" fill="#FFFFFF"/>
    <circle cx="580" cy="668" r="9.5" fill="#FFFFFF"/>
    <circle cx="545" cy="670" r="4.5" fill="#14122E"/>
    <circle cx="583" cy="670" r="4.5" fill="#14122E"/>
    <path d="M544 692q16 12 32 0" stroke="#14122E" stroke-width="5" fill="none" stroke-linecap="round"/>
    <circle cx="524" cy="686" r="6" fill="rgba(255,255,255,0.4)"/>
    <circle cx="596" cy="686" r="6" fill="rgba(255,255,255,0.4)"/>
  </g>

  <!-- ===== 暴躁菇（橙，右下，朝左扫射） ===== -->
  <g>
    <ellipse cx="1110" cy="902" rx="48" ry="13" fill="rgba(0,0,0,0.22)"/>
    <g transform="rotate(180 1110 838)">
      <rect x="1130" y="824" width="76" height="22" rx="10" fill="#1FA85A" stroke="#14122E" stroke-width="6"/>
      <rect x="1152" y="846" width="20" height="30" rx="8" fill="#1FA85A" stroke="#14122E" stroke-width="5"/>
      <rect x="1200" y="820" width="16" height="28" rx="6" fill="#14122E"/>
    </g>
    <!-- 枪口火光 + 弹雨 -->
    <use href="#star4" transform="translate(884 838) scale(1.6)" fill="#FFC831"/>
    <path d="M1010 838h-24M952 838h-20" stroke="#FFFFFF" stroke-width="5" stroke-linecap="round" opacity="0.7"/>
    <use href="#star4" transform="translate(976 838) scale(1.3)" fill="#FFC831"/>
    <use href="#star4" transform="translate(920 838) scale(1.1)" fill="#FFFFFF"/>
    <ellipse cx="1092" cy="886" rx="11" ry="8" fill="#D9622B" stroke="#14122E" stroke-width="5"/>
    <ellipse cx="1130" cy="886" rx="11" ry="8" fill="#D9622B" stroke="#14122E" stroke-width="5"/>
    <circle cx="1110" cy="838" r="48" fill="#FF8A3D" stroke="#14122E" stroke-width="7"/>
    <path d="M1064 830a46 46 0 0 1 92 0l0 6-92 0z" fill="#D9622B" stroke="#14122E" stroke-width="6"/>
    <circle cx="1092" cy="838" r="9" fill="#FFFFFF"/>
    <circle cx="1128" cy="838" r="9" fill="#FFFFFF"/>
    <circle cx="1089" cy="840" r="4.5" fill="#14122E"/>
    <circle cx="1125" cy="840" r="4.5" fill="#14122E"/>
    <path d="M1080 824l16 6M1140 824l-16 6" stroke="#14122E" stroke-width="5" stroke-linecap="round"/>
    <ellipse cx="1110" cy="864" rx="10" ry="7" fill="#14122E"/>
  </g>

  <!-- ===== 跑跑姜（绿，左下，朝右上跑） ===== -->
  <g>
    <ellipse cx="470" cy="952" rx="46" ry="12" fill="rgba(0,0,0,0.22)"/>
    <g transform="rotate(-38 470 890)">
      <rect x="496" y="878" width="54" height="20" rx="9" fill="#3EA6FF" stroke="#14122E" stroke-width="6"/>
      <rect x="544" y="882" width="14" height="13" rx="5" fill="#1B6FD1" stroke="#14122E" stroke-width="5"/>
    </g>
    <use href="#star4" transform="translate(586 838) scale(1.3)" fill="#FFC831"/>
    <use href="#star4" transform="translate(624 812) scale(1)" fill="#FFFFFF"/>
    <ellipse cx="452" cy="936" rx="11" ry="8" fill="#1FA85A" stroke="#14122E" stroke-width="5"/>
    <ellipse cx="490" cy="936" rx="11" ry="8" fill="#1FA85A" stroke="#14122E" stroke-width="5"/>
    <circle cx="470" cy="890" r="46" fill="#3ED97E" stroke="#14122E" stroke-width="7"/>
    <path d="M426 882a44 44 0 0 1 88 0l0 6-88 0z" fill="#1FA85A" stroke="#14122E" stroke-width="6"/>
    <circle cx="454" cy="890" r="8.5" fill="#FFFFFF"/>
    <circle cx="488" cy="890" r="8.5" fill="#FFFFFF"/>
    <circle cx="457" cy="888" r="4" fill="#14122E"/>
    <circle cx="491" cy="888" r="4" fill="#14122E"/>
    <path d="M456 910q14 10 28 0" stroke="#14122E" stroke-width="5" fill="none" stroke-linecap="round"/>
    <!-- 速度线 -->
    <path d="M396 872h-34M400 900h-26M404 928h-30" stroke="#FFFFFF" stroke-width="5" stroke-linecap="round" opacity="0.55"/>
  </g>

  <!-- 边缘渐隐，融入页面夜色 -->
  <rect width="1600" height="1200" fill="url(#vig)"/>
</svg>
